<?xml version="1.0" standalone="no"?>
<!DOCTYPE svg PUBLIC "-//W3C//DTD SVG 20010904//EN"
 "http://www.w3.org/TR/2001/REC-SVG-20010904/DTD/svg10.dtd">
<svg version="1.0" xmlns="http://www.w3.org/2000/svg"
 width="177.000000pt" height="177.000000pt" viewBox="0 0 177.000000 177.000000"
 preserveAspectRatio="xMidYMid meet">
<metadata>
Created by potrace 1.14, written by Peter Selinger 2001-2017
</metadata>
<g transform="translate(0.000000,177.000000) scale(0.100000,-0.100000)"
fill="#000000" stroke="none">
<path d="M915 1755 c-16 -7 -40 -24 -52 -37 -28 -30 -215 -480 -203 -488 5 -3
25 -4 44 -2 35 4 36 5 95 146 32 77 67 161 77 186 25 64 43 89 76 106 47 25
99 21 173 -11 33 -15 51 -23 244 -101 143 -59 178 -78 201 -109 21 -27 38 -76
34 -100 -2 -11 -40 -108 -85 -215 -49 -117 -84 -214 -87 -243 l-5 -48 33 3
c31 3 34 8 71 98 21 52 45 109 53 125 43 93 116 288 116 311 0 41 -38 111 -74
138 -17 14 -110 57 -206 96 -96 40 -191 79 -210 88 -19 8 -39 16 -45 18 -5 1
-37 14 -70 28 -66 28 -132 32 -180 11z"/>
<path d="M1140 1590 c-26 -16 1 -36 124 -86 124 -52 165 -59 147 -26 -11 20
-256 121 -271 112z"/>
<path d="M655 1203 c-79 -15 -94 -51 -94 -224 1 -197 18 -219 168 -219 101 0
135 12 156 56 21 44 17 96 -8 100 -20 3 -22 -2 -32 -58 -7 -45 -34 -57 -130
-54 -100 3 -105 12 -105 180 0 170 4 176 118 176 89 0 111 -10 121 -60 4 -21
13 -34 24 -36 24 -3 31 18 20 62 -13 57 -46 75 -139 78 -44 1 -88 1 -99 -1z"/>
<path d="M123 1191 c-5 -3 -8 -100 -8 -216 l0 -210 24 0 24 0 0 188 c1 103 1
187 3 187 1 0 26 -40 144 -235 14 -23 38 -65 55 -93 28 -48 32 -52 67 -50 l38
1 1 146 c0 80 1 176 2 214 2 67 -3 78 -34 70 -13 -4 -15 -28 -14 -179 0 -97
-2 -177 -6 -179 -3 -3 -55 75 -114 173 -60 97 -110 179 -111 181 -5 6 -62 8
-71 2z"/>
<path d="M983 1187 c-3 -5 -6 -102 -6 -216 l0 -206 149 0 c143 0 149 1 152 21
3 20 -1 20 -113 20 -64 -1 -121 1 -128 4 -8 3 -12 30 -12 78 -1 66 1 72 20 73
11 1 65 2 120 3 94 1 100 2 103 22 3 21 0 21 -113 22 -64 0 -119 3 -123 7 -4
4 -7 36 -7 71 l0 64 128 0 c127 0 128 0 125 23 -3 22 -5 22 -146 22 -79 0
-146 -4 -149 -8z"/>
<path d="M1363 1191 c-5 -3 -8 -100 -8 -216 l0 -210 125 -2 c147 -3 173 1 168
25 -3 15 -18 17 -118 18 -63 1 -118 2 -121 3 -3 1 -6 83 -7 184 0 100 -1 187
-1 193 -1 11 -25 15 -38 5z"/>
<path d="M644 1105 c-3 -8 1 -21 9 -29 13 -13 16 -12 26 10 15 33 14 34 -9 34
-11 0 -23 -7 -26 -15z"/>
<path d="M511 899 c-8 -17 -14 -58 -13 -90 0 -38 -5 -62 -14 -70 -8 -6 -14 -8
-14 -5 0 4 -9 2 -20 -4 -11 -6 -20 -17 -20 -25 0 -13 -29 -15 -180 -15 -166 0
-180 -1 -180 -18 0 -16 13 -18 171 -17 94 0 175 -3 181 -6 6 -4 8 -18 4 -34
-5 -18 -3 -25 4 -20 6 4 17 2 24 -5 11 -8 18 -3 32 27 l19 38 400 1 c220 0
403 -1 407 -3 4 -2 1 -20 -7 -39 -9 -23 -12 -42 -6 -52 11 -22 11 -33 0 -55
-6 -10 -14 -15 -20 -12 -5 4 -15 3 -21 -2 -9 -5 -3 -9 17 -13 26 -4 30 -10 31
-37 1 -38 -25 -66 -64 -69 -15 -1 -30 -3 -33 -3 -3 -1 -23 -44 -44 -97 -21
-53 -43 -98 -50 -100 -7 -3 -36 6 -66 20 -158 72 -429 176 -457 176 -22 0 -41
9 -58 25 -14 14 -26 25 -28 25 -2 0 -21 8 -42 17 -44 19 -104 26 -104 12 0
-10 2 -11 52 -13 47 -1 64 -17 49 -44 -9 -18 -20 -20 -72 -19 -69 2 -78 -6
-55 -51 29 -57 79 -87 296 -176 118 -49 233 -97 255 -106 83 -36 104 -41 153
-37 101 9 119 30 209 252 25 60 53 128 63 150 10 22 26 65 35 95 10 30 22 62
27 70 5 8 16 31 24 50 l15 35 117 0 c103 0 117 3 120 18 3 15 -9 17 -133 17
-75 0 -145 5 -156 10 -13 7 -19 7 -19 0 0 -7 -134 -10 -410 -10 l-409 0 15 43
c13 35 13 51 3 99 -6 31 -9 66 -6 78 8 31 -6 24 -22 -11z"/>
<path d="M380 610 c-6 -11 -7 -20 -3 -20 5 0 14 9 21 20 7 11 8 20 2 20 -5 0
-14 -9 -20 -20z"/>
<path d="M106 572 c-13 -12 -5 -19 19 -17 29 4 34 -10 32 -84 -1 -30 3 -61 10
-70 10 -13 12 -1 13 67 0 58 4 82 13 83 28 3 32 4 37 14 5 10 -115 17 -124 7z"/>
<path d="M317 565 c-1 -5 -2 -46 -2 -90 l0 -80 50 -2 c54 -2 90 5 80 15 -4 4
-28 7 -53 7 -45 1 -47 2 -47 30 0 29 1 30 48 30 31 0 47 4 47 13 0 8 -17 12
-50 12 -47 0 -50 2 -50 25 0 26 2 27 68 27 32 1 56 16 30 20 -48 6 -118 2
-121 -7z"/>
<path d="M550 560 c-26 -26 -29 -130 -4 -154 20 -20 97 -21 113 -2 19 22 22
56 5 56 -8 0 -14 -9 -14 -20 0 -11 -3 -21 -7 -21 -78 -12 -92 0 -88 71 3 59 4
61 41 65 36 4 54 -3 54 -21 0 -8 6 -14 14 -14 22 0 7 47 -17 54 -42 11 -77 6
-97 -14z"/>
<path d="M769 547 c-2 -77 3 -143 12 -151 9 -10 12 23 10 109 -1 45 -5 49 60
-55 54 -84 69 -77 69 31 0 48 -4 90 -9 93 -13 9 -18 -12 -16 -76 1 -32 -1 -58
-5 -58 -3 0 -23 30 -45 67 -45 75 -74 90 -76 40z"/>
<path d="M1026 571 c-9 -15 -5 -171 5 -177 11 -7 12 -6 14 94 1 77 -5 106 -19
83z"/>
<path d="M1156 558 c-19 -31 -19 -117 0 -145 21 -33 96 -33 118 -1 20 28 20
48 1 48 -8 0 -15 -9 -15 -20 0 -11 -6 -20 -12 -21 -7 0 -22 -2 -33 -4 -36 -7
-46 9 -46 70 0 32 5 61 11 65 9 6 34 6 73 1 4 -1 7 -8 7 -16 0 -8 7 -15 15
-15 19 0 19 10 -1 38 -22 32 -97 32 -118 0z"/>
<path d="M1386 558 c-21 -30 -14 -137 10 -155 19 -15 107 -14 121 1 4 3 9 33
11 66 6 85 -10 107 -78 107 -39 0 -54 -4 -64 -19z m115 -19 c3 -6 5 -33 5 -61
-2 -54 -15 -68 -55 -63 -14 1 -32 3 -38 4 -9 1 -13 21 -13 65 0 53 3 65 18 69
24 7 75 -1 83 -14z"/>
<path d="M367 528 c-7 -4 10 -8 37 -8 27 0 46 3 43 7 -9 9 -66 10 -80 1z"/>
</g>
</svg>
